<?xml version="1.0" standalone="no"?>
<!DOCTYPE svg PUBLIC "-//W3C//DTD SVG 20010904//EN"
 "http://www.w3.org/TR/2001/REC-SVG-20010904/DTD/svg10.dtd">
<svg version="1.0" xmlns="http://www.w3.org/2000/svg"
 width="32.000000pt" height="32.000000pt" viewBox="0 0 32.000000 32.000000"
 preserveAspectRatio="xMidYMid meet">
<metadata>
Created by potrace 1.16, written by Peter Selinger 2001-2019
</metadata>
<g transform="translate(0.000000,32.000000) scale(0.100000,-0.100000)"
fill="#000000" stroke="none">
<path d="M118 190 c15 -16 34 -30 44 -30 10 0 18 -4 18 -9 0 -11 -102 -7 -121
5 -7 4 -10 3 -6 -3 4 -6 19 -13 34 -16 16 -3 42 -11 58 -18 42 -18 63 -18 76
-3 7 9 21 11 37 7 17 -4 23 -2 18 6 -4 6 -14 11 -22 11 -8 0 -14 7 -14 16 0
11 -6 15 -19 11 -12 -3 -18 0 -15 7 5 13 -61 46 -93 46 -20 0 -20 -1 5 -30z"/>
<path d="M62 100 c7 -11 19 -20 27 -20 11 0 10 5 -4 20 -10 11 -22 20 -27 20
-4 0 -3 -9 4 -20z"/>
</g>
</svg>
